nColumns=19
nRows=78
DataType=double
version=3
OpenSimVersion=4.1
endheader
time	ground_force_1_vx	ground_force_1_vy	ground_force_1_vz	ground_force_1_px	ground_force_1_py	ground_force_1_pz	ground_force_1_mx	ground_force_1_my	ground_force_1_mz	ground_force_2_vx	ground_force_2_vy	ground_force_2_vz	ground_force_2_px	ground_force_2_py	ground_force_2_pz	ground_force_2_mx	ground_force_2_my	ground_force_2_mz
1.41	-4.52335	4.01943	1.36537	1.43799	0	-0.382269	0	-8.58082e-10	0	118.992	883.114	36.8326	0.953631	0	-0.563632	0	0.686	0
1.415	-7.32774	8.13307	4.00691	1.43955	0	-0.383554	0	-4.82398e-09	0	122.403	871.082	38.039	0.955532	0	-0.561977	0	0.256807	0
1.42	-7.90901	16.052	12.515	1.4398	0	-0.384785	0	-1.90193e-08	0	125.766	854.073	36.3374	0.957607	0	-0.560231	0	-0.0477262	0
1.425	3.64467	29.2465	23.0718	1.43953	0	-0.385007	0	-6.31465e-07	0	129.196	832.401	33.871	0.959843	0	-0.558432	0	-0.239595	0
1.43	19.0129	49.7727	29.3114	1.43997	0	-0.38497	0	-6.15254e-06	0	132.652	806.314	31.427	0.962234	0	-0.556593	0	-0.365338	0
1.435	26.262	96.3081	35.7316	1.44049	0	-0.38513	0	-3.66248e-05	0	135.474	776.157	28.7461	0.964745	0	-0.554811	0	-0.392332	0
1.44	11.1732	173.099	35.233	1.44073	0	-0.385439	0	-0.000168786	0	137.193	742.125	26.3091	0.967338	0	-0.553177	0	-0.205006	0
1.445	-6.46099	251.964	33.0084	1.44107	0	-0.38568	0	-0.000685069	0	138.06	703.747	24.3979	0.970046	0	-0.551624	0	0.183014	0
1.45	-22.4713	318.351	29.426	1.44151	0	-0.385859	0	-0.0023882	0	137.656	660.58	22.2718	0.972928	0	-0.550168	0	0.535214	0
1.455	-39.5844	373.107	22.3667	1.44198	0	-0.386019	0	-0.00694947	0	136.47	611.425	19.8285	0.976042	0	-0.548993	0	0.72252	0
1.46	-53.7651	418.898	17.0224	1.44252	0	-0.3861	0	-0.0172881	0	134.083	552.503	17.3556	0.979601	0	-0.548187	0	0.778588	0
1.465	-66.4445	459.315	12.8107	1.44314	0	-0.386098	0	-0.0375344	0	129.591	480.647	14.1175	0.984056	0	-0.547761	0	0.723541	0
1.47	-75.2155	497.947	9.79291	1.44394	0	-0.385975	0	-0.0706647	0	124.289	401.337	10.3419	0.989822	0	-0.547848	0	0.570408	0
1.475	-81.2737	536.836	7.28897	1.44498	0	-0.385689	0	-0.113019	0	115.918	321.511	6.23838	0.997753	0	-0.547903	0	0.316187	0
1.48	-86.2492	576.156	4.92543	1.44628	0	-0.385203	0	-0.144328	0	103.806	250.072	1.76635	1.00808	0	-0.547767	0	0.0854432	0
1.485	-91.2156	614.193	1.46838	1.44778	0	-0.384565	0	-0.130643	0	95.9533	210.114	-2.75735	1.01448	0	-0.545704	0	0.00182062	0
1.49	-96.6495	647.901	-3.26612	1.44937	0	-0.383845	0	-0.0589015	0	91.2994	195.372	-5.70039	1.01566	0	-0.543674	0	-2.92233e-05	0
1.495	-101.966	678.69	-8.71682	1.45151	0	-0.382754	0	0.0692515	0	84.0445	190.114	-8.57111	1.01595	0	-0.543614	0	-0.000165147	0
1.5	-107.191	709.747	-14.7713	1.45491	0	-0.380849	0	0.298728	0	74.4883	186.211	-11.5844	1.01622	0	-0.54366	0	-0.000336891	0
1.505	-112.585	735.465	-22.0759	1.4592	0	-0.378416	0	0.618359	0	66.3473	181.061	-12.2872	1.01664	0	-0.543628	0	-0.00028906	0
1.51	-116.677	752.525	-29.6592	1.46374	0	-0.375948	0	0.930026	0	59.3213	175.771	-12.3523	1.01717	0	-0.543568	0	-0.000227343	0
1.515	-119.503	763.192	-37.1478	1.46826	0	-0.373692	0	1.23947	0	53.2877	171.576	-12.0664	1.01779	0	-0.5435	0	-0.000205973	0
1.52	-121.349	769.844	-44.8658	1.47258	0	-0.37181	0	1.60591	0	46.7073	168.199	-10.7914	1.01846	0	-0.543422	0	-0.000181926	0
1.525	-121.896	774.951	-51.6807	1.47666	0	-0.370331	0	1.84348	0	39.9444	163.966	-9.11847	1.01921	0	-0.543358	0	-0.000106491	0
1.53	-121.494	780.999	-57.6154	1.48069	0	-0.3691	0	1.76318	0	34.09	155.726	-7.6365	1.02007	0	-0.543317	0	-2.53545e-05	0
1.535	-120.319	789.264	-62.5884	1.4848	0	-0.367936	0	1.47915	0	28.1991	141.419	-6.34008	1.02104	0	-0.543293	0	-1.30514e-06	0
1.54	-118.323	798.571	-66.2848	1.48895	0	-0.366799	0	1.08929	0	21.5869	120.864	-5.70134	1.02211	0	-0.543291	0	-9.82882e-09	0
1.545	-115.703	808.276	-68.7833	1.49309	0	-0.365803	0	0.561844	0	14.539	95.4441	-4.82828	1.02329	0	-0.543279	0	-1.34897e-11	0
1.55	-112.334	819.771	-70.3	1.49715	0	-0.365072	0	-0.116647	0	6.75869	68.8812	-3.619	1.02455	0	-0.543237	0	-8.88178e-15	0
1.555	-108.632	833.399	-70.3797	1.50108	0	-0.364625	0	-0.859078	0	-2.52222	43.105	-5.2638	1.02582	0	-0.543294	0	0	0
1.56	-104.763	848.037	-69.1756	1.50465	0	-0.364414	0	-1.48077	0	-9.78594	18.9194	-6.80016	1.02715	0	-0.543391	0	0	0
1.565	-100.426	862.111	-67.4979	1.50763	0	-0.364343	0	-1.87172	0	-0.494397	0.545213	-0.219115	1.03004	0	-0.542656	0	2.77556e-17	0
1.57	-96.2585	871.461	-65.0398	1.51019	0	-0.364326	0	-2.14793	0	0.12095	-0.11341	0.0383364	1.03479	0	-0.541562	0	-6.93889e-18	0
1.575	-92.1126	873.865	-62.186	1.51253	0	-0.364343	0	-2.49041	0	0.0333151	-0.0284381	0.00836278	1.04075	0	-0.540476	0	-1.73472e-17	0
1.58	-87.5213	872.466	-59.9266	1.51464	0	-0.364399	0	-2.8671	0	-0.509247	0.396313	-0.106316	1.04773	0	-0.539406	0	-7.35523e-16	0
1.585	-82.7843	869.338	-58.2363	1.51646	0	-0.364485	0	-3.20648	0	-0.262666	0.185004	-0.0444073	1.05598	0	-0.538345	0	-6.34215e-15	0
1.59	-77.9869	863.727	-57.0096	1.51801	0	-0.364584	0	-3.53201	0	-0.296133	0.191683	-0.0414112	1.0655	0	-0.537309	0	-6.94306e-14	0
1.595	-73.0673	855.527	-56.2369	1.51935	0	-0.364684	0	-3.80684	0	-0.387915	0.234436	-0.0465565	1.07608	0	-0.536299	0	-1.13799e-12	0
1.6	-68.1502	845.4	-55.8183	1.52052	0	-0.364784	0	-3.98707	0	-0.32914	0.186333	-0.0343649	1.0877	0	-0.53532	0	5.63063e-13	0
1.605	-63.3142	833.841	-55.7015	1.52153	0	-0.364885	0	-4.08632	0	-0.243366	0.129415	-0.0219982	1.10036	0	-0.534384	0	1.02748e-11	0
1.61	-58.5185	821.255	-55.8522	1.52239	0	-0.364982	0	-4.11622	0	-0.182161	0.0916301	-0.0143519	1.11399	0	-0.533494	0	8.3698e-12	0
1.615	-53.8411	807.94	-56.281	1.52316	0	-0.365076	0	-4.07989	0	-0.139837	0.0669574	-0.00971083	1.12847	0	-0.532646	0	5.7008e-12	0
1.62	-49.3532	794.059	-56.8975	1.52384	0	-0.365173	0	-3.98399	0	-0.109357	0.0500573	-0.00671935	1.14372	0	-0.531845	0	3.76107e-12	0
1.625	-45.1183	779.819	-57.5156	1.52444	0	-0.365277	0	-3.84236	0	-0.0884082	0.0388479	-0.00481491	1.15967	0	-0.531093	0	2.52393e-12	0
1.63	-41.171	765.482	-57.9697	1.52498	0	-0.365391	0	-3.66721	0	-0.0747775	0.0316778	-0.00361792	1.17623	0	-0.53039	0	1.74829e-12	0
1.635	-37.5306	751.277	-58.1594	1.52546	0	-0.365518	0	-3.47608	0	-0.0665361	0.0272766	-0.00286142	1.19333	0	-0.529737	0	1.231e-12	0
1.64	-34.1901	737.451	-58.0436	1.52588	0	-0.365655	0	-3.27563	0	-0.0624207	0.0248448	-0.00238001	1.21088	0	-0.529136	0	8.32592e-13	0
1.645	-31.0144	724.228	-57.6948	1.52623	0	-0.365799	0	-3.05913	0	-0.0618892	0.0239893	-0.00208266	1.22883	0	-0.528588	0	4.47409e-13	0
1.65	-27.9308	711.754	-57.1614	1.52653	0	-0.365948	0	-2.82457	0	-0.0647881	0.0245233	-0.0019119	1.24713	0	-0.528093	0	-5.20881e-14	0
1.655	-24.837	700.126	-56.4718	1.52679	0	-0.366101	0	-2.57087	0	-0.0714811	0.0264857	-0.00183158	1.26573	0	-0.527651	0	-8.68935e-13	0
1.66	-21.6546	689.356	-55.606	1.52704	0	-0.366255	0	-2.30266	0	-0.0828216	0.0301043	-0.00181414	1.28459	0	-0.527266	0	-2.40325e-12	0
1.665	-18.4001	679.433	-54.5441	1.5273	0	-0.366409	0	-2.03104	0	-0.100365	0.0358549	-0.00183501	1.3037	0	-0.526937	0	-5.49897e-12	0
1.67	-15.1042	670.308	-53.2874	1.52759	0	-0.366559	0	-1.7615	0	-0.126424	0.0444626	-0.00186165	1.32302	0	-0.526668	0	-1.20134e-11	0
1.675	-11.8238	661.958	-51.9356	1.52792	0	-0.366703	0	-1.49475	0	-0.164444	0.0570182	-0.00184307	1.34256	0	-0.52646	0	-2.61057e-11	0
1.68	-8.63315	654.357	-50.556	1.52832	0	-0.36684	0	-1.23386	0	-0.219156	0.0750144	-0.00168906	1.3623	0	-0.526314	0	-5.71806e-11	0
1.685	-5.59808	647.511	-49.2351	1.52879	0	-0.36697	0	-0.975633	0	-0.29695	0.100454	-0.00124947	1.38225	0	-0.526232	0	-1.26582e-10	0
1.69	-2.79256	641.429	-47.991	1.52935	0	-0.367096	0	-0.721774	0	-0.405852	0.135827	-0.000283077	1.4024	0	-0.526215	0	-2.82682e-10	0
1.695	-0.293093	636.101	-46.7527	1.53	0	-0.367221	0	-0.479616	0	-0.555371	0.184046	0.00157231	1.42277	0	-0.526267	0	-6.34206e-10	0
1.7	1.84753	631.486	-45.485	1.53075	0	-0.367343	0	-0.253248	0	-0.755616	0.248152	0.00483229	1.44335	0	-0.526389	0	-1.42276e-09	0
1.705	3.63531	627.507	-44.1695	1.5316	0	-0.367464	0	-0.0495217	0	-1.01578	0.330828	0.0101667	1.46415	0	-0.526585	0	-3.17471e-09	0
1.71	5.10247	624.073	-42.8418	1.53252	0	-0.367577	0	0.128695	0	-1.34212	0.433776	0.0183638	1.48519	0	-0.526856	0	-7.01336e-09	0
1.715	6.34166	621.118	-41.6331	1.53354	0	-0.367682	0	0.288333	0	-1.73513	0.556855	0.0302339	1.50645	0	-0.527207	0	-1.52661e-08	0
1.72	7.42832	618.576	-40.6356	1.53463	0	-0.367777	0	0.430498	0	-2.18751	0.697495	0.0464386	1.52795	0	-0.527641	0	-3.26075e-08	0
1.725	8.42174	616.429	-39.9313	1.53579	0	-0.367863	0	0.560299	0	-2.68155	0.849937	0.0672811	1.54969	0	-0.52816	0	-6.80685e-08	0
1.73	9.34051	614.723	-39.5482	1.53704	0	-0.367942	0	0.680805	0	-3.18947	1.00543	0.0925324	1.57167	0	-0.528768	0	-1.38402e-07	0
1.735	10.163	613.494	-39.4521	1.53838	0	-0.368017	0	0.783014	0	-3.67322	1.15219	0.121181	1.59387	0	-0.529469	0	-2.73135e-07	0
1.74	10.8706	612.837	-39.6053	1.53982	0	-0.36809	0	0.857737	0	-4.08597	1.27591	0.151248	1.61631	0	-0.530266	0	-5.21352e-07	0
1.745	11.4618	612.86	-39.9392	1.54136	0	-0.368166	0	0.903996	0	-4.37546	1.36083	0.179696	1.63897	0	-0.531162	0	-9.58508e-07	0
1.75	11.9567	613.67	-40.4045	1.54303	0	-0.368245	0	0.929687	0	-4.48329	1.38943	0.202352	1.66187	0	-0.532161	0	-1.68664e-06	0
1.755	12.3933	615.298	-40.9137	1.54479	0	-0.368327	0	0.933903	0	-4.35696	1.34612	0.214323	1.685	0	-0.533269	0	-2.81731e-06	0
1.76	12.8582	617.679	-41.391	1.54665	0	-0.368413	0	0.91132	0	-3.95709	1.21936	0.210585	1.7084	0	-0.534492	0	-4.41118e-06	0
1.765	13.3958	620.756	-41.7454	1.54856	0	-0.368503	0	0.858786	0	-3.29405	1.01284	0.188406	1.73206	0	-0.535841	0	-6.37789e-06	0
1.77	14.0493	624.471	-41.8975	1.55053	0	-0.368597	0	0.77638	0	-2.44127	0.749337	0.14918	1.75604	0	-0.537337	0	-8.34861e-06	0
1.775	14.8574	628.749	-41.83	1.55255	0	-0.368696	0	0.669242	0	-1.54738	0.474374	0.100505	1.78036	0	-0.539017	0	-9.67607e-06	0
1.78	15.8038	633.462	-41.5373	1.55462	0	-0.368797	0	0.546614	0	-0.787759	0.241351	0.054131	1.805	0	-0.540981	0	-9.6773e-06	0
1.785	16.8781	638.436	-41.0844	1.55673	0	-0.368896	0	0.419097	0	-0.281334	0.086211	0.0203601	1.82986	0	-0.543598	0	-8.08577e-06	0
1.79	18.0706	643.426	-40.5393	1.55888	0	-0.36899	0	0.29075	0	-0.0329995	0.0101337	0.00248999	1.85256	0	-0.552406	0	-5.13245e-06	0
1.795	19.391	648.222	-40.0058	1.56108	0	-0.369076	0	0.165539	0	-0.00130098	0.000407308	9.04078e-05	1.83281	0	-0.653515	0	4.35312e-07	0
